<svg width="58" height="58" viewBox="0 0 58 58" fill="none" xmlns="http://www.w3.org/2000/svg">
<path fill-rule="evenodd" clip-rule="evenodd" d="M29 53.2359C22.6749 53.2359 16.6895 50.8143 12.1461 46.4164C12.041 46.3143 12.0377 46.1464 12.1398 46.0413C12.2424 45.9361 12.4102 45.9336 12.515 46.035C16.9588 50.3364 22.8131 52.7053 29 52.7053C42.0712 52.7053 52.7056 42.0709 52.7056 28.9998C52.7056 15.9286 42.0712 5.29475 29 5.29475C15.9289 5.29475 5.29499 15.9286 5.29499 28.9998C5.29499 31.8225 5.78565 34.5836 6.75354 37.2063C6.8043 37.3435 6.7343 37.496 6.5964 37.5467C6.46076 37.598 6.30637 37.5275 6.25609 37.3898C5.26638 34.7084 4.7644 31.8852 4.7644 28.9998C4.7644 15.6363 15.6366 4.76416 29 4.76416C42.364 4.76416 53.2361 15.6363 53.2361 28.9998C53.2361 42.3637 42.364 53.2359 29 53.2359" fill="#8DD1C5"/>
<path d="M29 53.2359C22.6749 53.2359 16.6895 50.8143 12.1461 46.4164C12.041 46.3143 12.0377 46.1464 12.1398 46.0413C12.2424 45.9361 12.4102 45.9336 12.515 46.035C16.9588 50.3364 22.8131 52.7053 29 52.7053C42.0712 52.7053 52.7056 42.0709 52.7056 28.9998C52.7056 15.9286 42.0712 5.29475 29 5.29475C15.9289 5.29475 5.29499 15.9286 5.29499 28.9998C5.29499 31.8225 5.78565 34.5836 6.75354 37.2063C6.8043 37.3435 6.7343 37.496 6.5964 37.5467C6.46076 37.598 6.30637 37.5275 6.25609 37.3898C5.26638 34.7084 4.7644 31.8852 4.7644 28.9998C4.7644 15.6363 15.6366 4.76416 29 4.76416C42.364 4.76416 53.2361 15.6363 53.2361 28.9998C53.2361 42.3637 42.364 53.2359 29 53.2359" stroke="#8DD1C5" stroke-width="0.25"/>
<path fill-rule="evenodd" clip-rule="evenodd" d="M28.9997 57C22.4041 57 15.9985 54.6623 10.9628 50.4178C10.7391 50.2287 10.7106 49.894 10.8991 49.6701C11.0883 49.4457 11.4219 49.4173 11.6468 49.6064C16.4911 53.6898 22.6538 55.9389 28.9997 55.9389C43.8542 55.9389 55.9387 43.8543 55.9387 28.9997C55.9387 14.1457 43.8542 2.06101 28.9997 2.06101C14.1457 2.06101 2.06101 14.1457 2.06101 28.9997C2.06101 32.9296 2.88745 36.7166 4.51801 40.2565C4.62519 40.4886 4.73561 40.7196 4.8491 40.9486C4.97956 41.2113 4.87238 41.5299 4.60967 41.6601C4.34745 41.7912 4.02929 41.6833 3.89883 41.4211C3.78016 41.1828 3.66554 40.9424 3.55416 40.6999C1.85958 37.0202 1 33.084 1 28.9997C1 13.5608 13.5606 1 28.9997 1C44.4391 1 57 13.5608 57 28.9997C57 44.4393 44.4391 57 28.9997 57Z" fill="#8DD1C5" stroke="#8DD1C5" stroke-width="0.75"/>
<path fill-rule="evenodd" clip-rule="evenodd" d="M25.0916 36.8327H21.6455C21.334 36.8327 21.1233 36.5149 21.2447 36.2281L22.9925 32.0969C23.1432 31.7407 23.6487 31.7433 23.7956 32.1009L25.4939 36.2321C25.6116 36.5184 25.4011 36.8327 25.0916 36.8327ZM43.7283 25.4984C42.2628 24.7643 40.7576 24.5894 40.2341 24.5553C38.5211 24.4499 37.2635 23.1211 37.2635 21.4793C37.2635 19.7663 38.6633 18.3336 40.3734 18.3336C41.3156 18.3336 42.2842 18.88 43.0031 19.7839C43.2414 20.0833 43.6685 20.153 43.9965 19.9561L44.9371 19.3923C45.3304 19.1565 45.4415 18.6254 45.1592 18.2639C43.8632 16.6044 42.1317 15.6787 40.3734 15.6787C37.1581 15.6787 34.6086 18.2298 34.6086 21.4793C34.6086 24.4842 36.9133 27.0365 39.9893 27.2798C40.0263 27.2798 41.3523 27.2798 42.6469 27.91C44.2547 28.7124 44.9861 30.1109 45.0229 32.1384C45.0229 33.4302 44.5677 34.5841 43.6941 35.4933C42.7494 36.4364 41.4917 36.9259 40.2 36.9259C38.5431 36.9259 37.0565 35.9317 36.185 34.4424C36.1659 34.4098 36.149 34.3755 36.1342 34.3406L35.6132 33.1098L34.9058 31.4384L28.2723 15.7668C28.0055 15.1368 27.1133 15.1355 26.8477 15.7658C25.9679 17.8547 24.9921 20.1895 24.0987 22.3468C23.837 22.9792 22.9452 22.9862 22.6751 22.3573C21.8879 20.5245 20.6375 17.6126 19.8531 15.7861C19.5839 15.1593 18.695 15.1649 18.4302 15.7937L4.24698 49.5553C4.03229 50.0653 4.40671 50.6291 4.96009 50.6291H6.28057C6.59453 50.6291 6.87566 50.4414 6.99514 50.1508C7.8691 48.0248 13.5429 34.5731 14.4185 32.4292C15.7754 29.3023 17.1324 26.0759 18.426 22.9394C18.6889 22.3018 19.5921 22.3026 19.8553 22.9401C20.0024 23.2966 20.1529 23.6588 20.3599 24.1461C20.8424 25.1769 21.2671 26.1487 21.7407 27.3073C21.8183 27.497 21.8176 27.7123 21.7384 27.9013L17.3978 38.2434C17.1287 38.8844 17.5996 39.5928 18.2949 39.5928H28.4393C29.1341 39.5928 29.6049 38.8855 29.337 38.2445L25.0277 27.9375C24.9486 27.7482 24.9478 27.5351 25.0259 27.3452L26.8556 22.8895C27.1165 22.2541 28.0144 22.2486 28.2831 22.8808L33.2537 34.5744L33.5041 35.1636C34.4565 37.1984 36.1672 38.7405 38.2508 39.3411C38.8712 39.5197 39.5239 39.6162 40.2 39.6162C42.2628 39.6162 44.1124 38.8124 45.5125 37.3797C46.9435 35.9471 47.7119 34.1999 47.7119 32.2082C47.6777 28.4335 45.4753 26.4062 43.7283 25.4984Z" fill="#8DD1C5"/>
</svg>
