<svg width="400" height="400" viewBox="0 0 400 400" fill="none" xmlns="http://www.w3.org/2000/svg">
<path fill-rule="evenodd" clip-rule="evenodd" d="M199.915 328.367C166.365 328.367 134.618 315.523 110.518 292.195C109.961 291.654 109.944 290.763 110.485 290.206C111.029 289.647 111.919 289.635 112.475 290.172C136.046 312.988 167.098 325.553 199.915 325.553C269.247 325.553 325.654 269.146 325.654 199.814C325.654 130.482 269.247 74.0776 199.915 74.0776C130.583 74.0776 74.1788 130.482 74.1788 199.814C74.1788 214.786 76.7814 229.432 81.9153 243.343C82.1845 244.071 81.8132 244.88 81.0818 245.149C80.3623 245.421 79.5434 245.047 79.2767 244.316C74.0271 230.094 71.3645 215.119 71.3645 199.814C71.3645 128.932 129.033 71.2633 199.915 71.2633C270.8 71.2633 328.469 128.932 328.469 199.814C328.469 270.699 270.8 328.367 199.915 328.367" fill="#8DD1C5"/>
<mask id="mask0" mask-type="alpha" maskUnits="userSpaceOnUse" x="51" y="51" width="298" height="298">
<path fill-rule="evenodd" clip-rule="evenodd" d="M51.3992 51.2977H348.434V348.333H51.3992V51.2977Z" fill="white"/>
</mask>
<g mask="url(#mask0)">
<path fill-rule="evenodd" clip-rule="evenodd" d="M199.915 348.333C164.931 348.333 130.954 335.934 104.244 313.42C103.057 312.417 102.906 310.642 103.906 309.454C104.909 308.264 106.679 308.113 107.872 309.116C133.567 330.775 166.256 342.705 199.915 342.705C278.707 342.705 342.805 278.606 342.805 199.814C342.805 121.025 278.707 56.9256 199.915 56.9256C121.127 56.9256 57.027 121.025 57.027 199.814C57.027 220.659 61.4106 240.746 70.0594 259.522C70.6279 260.754 71.2136 261.979 71.8156 263.193C72.5076 264.587 71.9391 266.277 70.5456 266.967C69.1547 267.662 67.4672 267.091 66.7751 265.7C66.1457 264.436 65.5378 263.161 64.9469 261.874C55.9585 242.357 51.3992 221.478 51.3992 199.814C51.3992 117.923 118.023 51.2977 199.915 51.2977C281.809 51.2977 348.435 117.923 348.435 199.814C348.435 281.708 281.809 348.333 199.915 348.333" fill="#8DD1C5"/>
</g>
<path fill-rule="evenodd" clip-rule="evenodd" d="M179.183 241.362H160.904C159.252 241.362 158.134 239.676 158.778 238.155L168.049 216.242C168.848 214.353 171.529 214.367 172.309 216.264L181.317 238.177C181.941 239.695 180.825 241.362 179.183 241.362M278.037 181.243C270.264 177.349 262.28 176.421 259.503 176.24C250.417 175.681 243.746 168.634 243.746 159.925C243.746 150.839 251.171 143.239 260.242 143.239C265.24 143.239 270.377 146.138 274.19 150.932C275.454 152.52 277.72 152.89 279.46 151.845L284.449 148.855C286.535 147.604 287.124 144.787 285.627 142.87C278.752 134.067 269.568 129.157 260.242 129.157C243.187 129.157 229.664 142.689 229.664 159.925C229.664 175.863 241.889 189.402 258.205 190.692C258.401 190.692 265.434 190.692 272.301 194.035C280.829 198.29 284.709 205.709 284.904 216.463C284.904 223.315 282.489 229.435 277.855 234.258C272.845 239.26 266.174 241.857 259.322 241.857C250.533 241.857 242.649 236.583 238.026 228.684C237.925 228.511 237.835 228.329 237.757 228.144L234.993 221.616L231.24 212.75L196.055 129.625C194.64 126.283 189.908 126.276 188.499 129.619C183.832 140.699 178.656 153.083 173.918 164.526C172.529 167.881 167.799 167.917 166.366 164.582C162.191 154.86 155.558 139.415 151.398 129.727C149.97 126.402 145.255 126.432 143.851 129.767L68.6199 308.846C67.4812 311.551 69.4671 314.541 72.4024 314.541H79.4065C81.0718 314.541 82.563 313.546 83.1967 312.005C87.8324 300.728 117.928 229.377 122.572 218.005C129.769 201.419 136.967 184.306 143.829 167.67C145.223 164.288 150.014 164.292 151.41 167.673C152.19 169.564 152.988 171.486 154.086 174.07C156.646 179.538 158.898 184.692 161.41 190.838C161.822 191.844 161.818 192.986 161.398 193.988L138.375 248.845C136.947 252.245 139.445 256.002 143.133 256.002H196.941C200.626 256.002 203.124 252.251 201.703 248.851L178.845 194.18C178.426 193.176 178.421 192.046 178.835 191.038L188.541 167.405C189.925 164.035 194.687 164.006 196.113 167.358L222.477 229.384L223.806 232.509C228.857 243.302 237.931 251.482 248.983 254.667C252.274 255.615 255.736 256.127 259.322 256.127C270.264 256.127 280.075 251.863 287.501 244.264C295.091 236.665 299.167 227.398 299.167 216.833C298.985 196.811 287.303 186.058 278.037 181.243" fill="#8DD1C5"/>
</svg>
